{"accessors" : [{"bufferView" : 0, "byteOffset" : 0, "componentType" : 5123, "count" : 618, "type" : "SCALAR", "max" : [192], "min" : [0]}, {"bufferView" : 1, "byteOffset" : 0, "componentType" : 5126, "count" : 193, "type" : "VEC3", "max" : [10, 5, 88], "min" : [-51, -29, 0], "name" : "POSITION"}, {"bufferView" : 0, "byteOffset" : 1236, "componentType" : 5123, "count" : 5370, "type" : "SCALAR", "max" : [915], "min" : [0]}, {"bufferView" : 2, "byteOffset" : 0, "componentType" : 5126, "count" : 916, "type" : "VEC3", "max" : [-17, -33, 77], "min" : [-23, -36, 9], "name" : "POSITION"}, {"bufferView" : 0, "byteOffset" : 11976, "componentType" : 5123, "count" : 216, "type" : "SCALAR", "max" : [59], "min" : [0]}, {"bufferView" : 3, "byteOffset" : 0, "componentType" : 5126, "count" : 60, "type" : "VEC3", "max" : [8, -29, 84], "min" : [-49, -33, 3], "name" : "POSITION"}, {"bufferView" : 0, "byteOffset" : 12408, "componentType" : 5123, "count" : 114, "type" : "SCALAR", "max" : [25], "min" : [0]}, {"bufferView" : 4, "byteOffset" : 0, "componentType" : 5126, "count" : 26, "type" : "VEC3", "max" : [6.041999816894531, 0, 95], "min" : [-18, -24.04199981689453, 88], "name" : "POSITION"}, {"bufferView" : 0, "byteOffset" : 12636, "componentType" : 5123, "count" : 12114, "type" : "SCALAR", "max" : [2105], "min" : [0]}, {"bufferView" : 5, "byteOffset" : 0, "componentType" : 5126, "count" : 2106, "type" : "VEC3", "max" : [3.9200000762939453, 0, 115], "min" : [-42, -21.21299934387207, 88], "name" : "POSITION"}, {"bufferView" : 0, "byteOffset" : 36864, "componentType" : 5123, "count" : 42, "type" : "SCALAR", "max" : [11], "min" : [0]}, {"bufferView" : 6, "byteOffset" : 0, "componentType" : 5126, "count" : 12, "type" : "VEC3", "max" : [-1, -6, 96], "min" : [-11, -18, 95], "name" : "POSITION"}], "asset" : {"generator" : "Aspose.3D 24.4.1", "version" : "2.0"}, "buffers" : [{"uri" : "data:application/octet-stream;base64,", "byteLength" : 76732}], "bufferViews" : [{"buffer" : 0, "byteOffset" : 0, "byteLength" : 36948, "target" : 34963}, {"buffer" : 0, "byteOffset" : 36952, "byteLength" : 2316, "byteStride" : 12, "target" : 34962}, {"buffer" : 0, "byteOffset" : 39272, "byteLength" : 10992, "byteStride" : 12, "target" : 34962}, {"buffer" : 0, "byteOffset" : 50268, "byteLength" : 720, "byteStride" : 12, "target" : 34962}, {"buffer" : 0, "byteOffset" : 50992, "byteLength" : 312, "byteStride" : 12, "target" : 34962}, {"buffer" : 0, "byteOffset" : 51308, "byteLength" : 25272, "byteStride" : 12, "target" : 34962}, {"buffer" : 0, "byteOffset" : 76584, "byteLength" : 144, "byteStride" : 12, "target" : 34962}], "materials" : [{"name" : "color_6306067", "pbrMetallicRoughness" : {"baseColorFactor" : [0.3764705882352941, 0.2235294117647059, 0.07450980392156863, 1], "metallicFactor" : 1, "roughnessFactor" : 1}, "emissiveFactor" : [0, 0, 0], "alphaMode" : "OPAQUE", "doubleSided" : false}, {"name" : "color_11107152", "pbrMetallicRoughness" : {"baseColorFactor" : [0.6627450980392157, 0.4823529411764706, 0.3137254901960784, 1], "metallicFactor" : 1, "roughnessFactor" : 1}, "emissiveFactor" : [0, 0, 0], "alphaMode" : "OPAQUE", "doubleSided" : false}, {"name" : "color_14860437", "pbrMetallicRoughness" : {"baseColorFactor" : [0.8862745098039215, 0.7529411764705882, 0.5843137254901961, 1], "metallicFactor" : 1, "roughnessFactor" : 1}, "emissiveFactor" : [0, 0, 0], "alphaMode" : "OPAQUE", "doubleSided" : false}, {"name" : "color_16089887", "pbrMetallicRoughness" : {"baseColorFactor" : [0.9607843137254902, 0.5137254901960784, 0.12156862745098039, 1], "metallicFactor" : 1, "roughnessFactor" : 1}, "emissiveFactor" : [0, 0, 0], "alphaMode" : "OPAQUE", "doubleSided" : false}, {"name" : "color_16448250", "pbrMetallicRoughness" : {"baseColorFactor" : [0.9803921568627451, 0.9803921568627451, 0.9803921568627451, 1], "metallicFactor" : 1, "roughnessFactor" : 1}, "emissiveFactor" : [0, 0, 0], "alphaMode" : "OPAQUE", "doubleSided" : false}, {"name" : "color_16768282", "pbrMetallicRoughness" : {"baseColorFactor" : [1, 0.8666666666666667, 0.10196078431372549, 1], "metallicFactor" : 1, "roughnessFactor" : 1}, "emissiveFactor" : [0, 0, 0], "alphaMode" : "OPAQUE", "doubleSided" : false}], "meshes" : [{"primitives" : [{"attributes" : {"POSITION" : 1}, "indices" : 0, "material" : 0, "mode" : 4}], "name" : ""}, {"primitives" : [{"attributes" : {"POSITION" : 3}, "indices" : 2, "material" : 1, "mode" : 4}], "name" : ""}, {"primitives" : [{"attributes" : {"POSITION" : 5}, "indices" : 4, "material" : 2, "mode" : 4}], "name" : ""}, {"primitives" : [{"attributes" : {"POSITION" : 7}, "indices" : 6, "material" : 3, "mode" : 4}], "name" : ""}, {"primitives" : [{"attributes" : {"POSITION" : 9}, "indices" : 8, "material" : 4, "mode" : 4}], "name" : ""}, {"primitives" : [{"attributes" : {"POSITION" : 11}, "indices" : 10, "material" : 5, "mode" : 4}], "name" : ""}], "nodes" : [{"mesh" : 0, "name" : "group_0_6306067"}, {"mesh" : 1, "name" : "group_0_11107152"}, {"mesh" : 2, "name" : "group_0_14860437"}, {"mesh" : 3, "name" : "group_0_16089887"}, {"mesh" : 4, "name" : "group_0_16448250"}, {"mesh" : 5, "name" : "group_0_16768282"}], "scene" : 0, "scenes" : [{"nodes" : [0, 1, 2, 3, 4, 5]}]}